HIERARCHY
ROOT pelvis
{
  OFFSET 0 100 0
  CHANNELS 6 Xposition Yposition Zposition Zrotation Xrotation Yrotation
  JOINT pelvis_right_femur
  {
    OFFSET -10.78128 -3.44521 -0.5502486
    CHANNELS 3 Zrotation Xrotation Yrotation
    JOINT right_femur_tibia
    {
      OFFSET -0.8047443 -44.0398 -0.1307829
      CHANNELS 3 Zrotation Xrotation Yrotation
      JOINT right_tibia_foot
      {
        OFFSET 3.006224 -47.83518 -5
        CHANNELS 3 Zrotation Xrotation Yrotation
        End Site
        {
          OFFSET 0 -5 15
        }
      }
    }
  }
  JOINT pelvis_left_femur
  {
    OFFSET 10.78128 -3.44521 -0.5502486
    CHANNELS 3 Zrotation Xrotation Yrotation
    JOINT left_femur_tibia
    {
      OFFSET 0.8047443 -44.0398 -0.1307829
      CHANNELS 3 Zrotation Xrotation Yrotation
      JOINT left_tibia_foot
      {
        OFFSET -4.370144 -48.10324 -4.275266
        CHANNELS 3 Zrotation Xrotation Yrotation
        End Site
        {
          OFFSET 0 -5 15
        }
      }
    }
  }
  JOINT pelvis_spine1
  {
    OFFSET 0 6.468898 -3.129235
    CHANNELS 3 Zrotation Xrotation Yrotation
    JOINT spine1
    {
      OFFSET 0 23.15396 4.99043
      CHANNELS 3 Zrotation Xrotation Yrotation
      JOINT spine2
      {
        OFFSET 0 20.79997 -5.064912
        CHANNELS 3 Zrotation Xrotation Yrotation
        JOINT neck
        {
          OFFSET 0 14.38658 9.616178
          CHANNELS 3 Zrotation Xrotation Yrotation
          End Site
          {
            OFFSET 0 20 0
          }
        }
      }
      JOINT right_manubrium
      {
        OFFSET -5.722621 16.35077 3.967754
        CHANNELS 3 Zrotation Xrotation Yrotation
        JOINT right_clavicle
        {
          OFFSET -13.16364 1.694482 -4.693211
          CHANNELS 3 Zrotation Xrotation Yrotation
          JOINT right_humerus
          {
            OFFSET -28.5034 -0.3100689 -2.792744
            CHANNELS 3 Zrotation Xrotation Yrotation
            JOINT right_radius
            {
              OFFSET -25.15693 0.02248979 -1.271978
              CHANNELS 3 Zrotation Xrotation Yrotation
              End Site
              {
                OFFSET -15 0 0
              }
            }
          }
        }
      }
      JOINT left_manubrium
      {
        OFFSET 5.722621 16.35077 3.967754
        CHANNELS 3 Zrotation Xrotation Yrotation
        JOINT left_clavicle
        {
          OFFSET 13.16364 1.694482 -4.693211
          CHANNELS 3 Zrotation Xrotation Yrotation
          JOINT left_humerus
          {
            OFFSET 29.39168 -1.063119 -2.237045
            CHANNELS 3 Zrotation Xrotation Yrotation
            JOINT left_radius
            {
              OFFSET 24.59957 -0.9528479 0.9047498
              CHANNELS 3 Zrotation Xrotation Yrotation
              End Site
              {
                OFFSET 15 -0 -0
              }
            }
          }
        }
      }
    }
  }
}
MOTION
Frames: 15
Frame Time: 0.0416666666667
0 103.5113 0 -0.2012675 1.07728 0.4364981 5.458339 -16.37689 8.801886 -0 39.00476 -0 -6.121941 -15.41505 -2.883345 -6.246033 7.167105 -20.66297 -0 7.635565 -0 9.752806 -14.20592 23.10928 -2.718368 -4.767305 5.244104 2.803125 10.73869 -8.635878 1.039063 20.08847 5.947801 1.991816 -25.64176 8.991992 6.224161 -22.11618 12.06584 86.1023 36.02277 -18.80975 -0 0 19.15898 -7.172545 11.50443 5.059636 4.811101 -19.94113 -1.150282 -93.84528 22.84016 26.53673 0 0 -14.73392 9.681339 16.06999 2.681957
0.6001228 104.0622 2.496427 -0.208273 1.724048 0.9120093 5.716346 -19.20436 8.726774 -0 38.44703 -0 -5.835396 -14.0168 -2.425955 -6.542264 8.748665 -21.01959 -0 6.546755 -0 10.25648 -15.53827 23.32376 -2.77782 -4.800351 5.218267 2.87435 10.72719 -8.740623 0.9804763 19.88367 6.343155 2.338265 -26.17268 9.204522 6.325404 -21.90696 12.1799 86.48494 36.09625 -19.74989 -0 0 18.571 -7.096495 11.09586 4.840756 5.203594 -20.36008 -1.211532 -93.60328 22.67643 25.90918 0 0 -16.16821 10.3262 16.04664 2.035256
1.139027 104.4908 5.146063 -0.345814 2.432661 1.336272 6.048766 -22.2578 8.353235 -0 34.7003 -0 -5.81466 -12.48075 -2.048794 -6.555549 10.03098 -20.73207 -0 8.14887 -0 9.060741 -16.83361 22.62133 -2.800039 -4.188039 4.914448 3.122563 10.25298 -8.760557 0.8599901 19.94519 6.92374 2.90696 -26.58075 9.297158 6.574934 -20.82958 12.20079 86.59071 36.70189 -20.65931 -0 0 16.83036 -7.170404 10.44495 4.867987 5.584225 -20.64778 -1.264599 -93.093 23.51548 24.18899 0 0 -18.08705 9.796011 15.59949 2.718157
1.627329 104.7803 7.996552 -0.5078853 2.927099 1.710247 6.302186 -24.62518 7.811386 -0 30.95057 -0 -5.963882 -10.87902 -1.693483 -6.473919 10.81089 -20.12833 -0 9.868072 -0 7.937192 -17.71353 21.74726 -2.740715 -3.638421 4.650521 3.316775 9.964552 -8.782399 0.7407599 19.988 7.376427 3.358518 -26.88582 9.307897 6.639443 -19.9841 12.24609 86.80895 36.96114 -21.40322 -0 0 15.25549 -7.545015 10.02709 5.07276 5.888478 -21.03114 -1.411457 -92.48607 23.90102 22.64282 0 0 -19.77478 9.529127 15.16081 3.069849
2.07354 104.9652 11.08078 -0.6803642 3.249885 2.038856 6.483596 -26.23105 7.209472 -0 27.53441 -0 -6.230746 -9.398232 -1.394308 -6.32926 11.11044 -19.31404 -0 11.89785 -0 6.889258 -18.10775 20.76308 -2.627763 -3.170769 4.437289 3.468402 9.81476 -8.80944 0.6277081 20.01707 7.698128 3.68802 -27.0867 9.248513 6.612755 -19.31507 12.30286 87.05842 37.06168 -21.96063 -0 0 13.87035 -8.063627 9.823929 5.373522 6.092851 -21.4274 -1.580316 -91.84571 23.93035 21.31881 0 0 -21.11682 9.470574 14.71857 3.160204
2.484752 105.0974 14.42394 -0.8545262 3.4586 2.327477 6.623664 -27.17616 6.619792 -0 24.57312 -0 -6.563442 -8.094475 -1.152293 -6.148714 11.0249 -18.37648 -0 14.33229 -0 5.924354 -18.05558 19.72685 -2.4821 -2.788051 4.278497 3.58939 9.76269 -8.843285 0.5227133 20.03207 7.910599 3.915939 -27.20617 9.138495 6.557837 -18.76539 12.36455 87.30508 37.12357 -22.3687 -0 0 12.65061 -8.623114 9.789133 5.707782 6.205595 -21.79904 -1.730013 -91.20826 23.69175 20.20569 0 0 -22.12618 9.582847 14.26337 3.04082
2.866195 105.2335 18.04022 -1.022321 3.57932 2.578906 6.746904 -27.53283 6.096308 -0 22.12019 -0 -6.923348 -7.015068 -0.9741934 -5.945665 10.6301 -17.3875 -0 17.20098 -0 5.036227 -17.6105 18.69481 -2.318995 -2.483461 4.172946 3.686496 9.774309 -8.878968 0.4297909 20.04103 8.030055 4.059166 -27.25382 8.992847 6.510267 -18.29616 12.42378 87.52428 37.20831 -22.64997 -0 0 11.58445 -9.155507 9.878695 6.033125 6.234032 -22.11447 -1.839657 -90.61094 23.28432 19.29612 0 0 -22.81582 9.79951 13.79911 2.792895
3.220999 105.4278 21.93127 -1.176928 3.616612 2.791963 6.869275 -27.35325 5.672488 -0 20.17683 -0 -7.285071 -6.19103 -0.8676926 -5.723847 9.980042 -16.40085 -0 20.48509 -0 4.207192 -16.83244 17.71373 -2.148505 -2.242462 4.11552 3.763016 9.823676 -8.907927 0.3530121 20.05608 8.069279 4.132109 -27.23189 8.821849 6.485878 -17.88403 12.47508 87.69677 37.33555 -22.81345 -0 0 10.66815 -9.623542 10.05417 6.326009 6.183886 -22.34981 -1.904712 -90.08696 22.80609 18.58547 0 0 -23.19899 10.04032 13.33803 2.511234
3.550564 105.7277 26.08608 -1.312944 3.56451 2.961526 6.997802 -26.67083 5.364519 -0 18.71315 -0 -7.632237 -5.641309 -0.8377019 -5.480778 9.101274 -15.45252 -0 24.12191 -0 3.416456 -15.77994 16.81968 -1.976732 -2.047274 4.100512 3.819764 9.893233 -8.920401 0.2952542 20.08843 8.03826 4.146468 -27.13965 8.631583 6.488585 -17.52066 12.51614 87.80339 37.50083 -22.85378 -0 0 9.909262 -10.0137 10.28603 6.57927 6.059314 -22.48819 -1.930494 -89.66412 22.34126 18.07581 0 0 -23.28649 10.22714 12.89528 2.286993
3.855422 106.1703 30.48176 -1.426291 3.415791 3.079557 7.130963 -25.50555 5.174717 -0 17.67765 -0 -7.951871 -5.378691 -0.8838409 -5.210119 7.992868 -14.56262 -0 27.99889 -0 2.646821 -14.50976 16.03972 -1.807462 -1.880129 4.124131 3.85569 9.971993 -8.906705 0.2577229 20.145 7.945057 4.111413 -26.97616 8.425144 6.515573 -17.2111 12.54759 87.82104 37.68811 -22.75156 -0 0 9.328921 -10.33042 10.55393 6.799452 5.864722 -22.51859 -1.926412 -89.36457 21.95304 17.77665 0 0 -23.08795 10.2939 12.48384 2.19674
4.136376 106.7783 35.0852 -1.51381 3.167207 3.136605 7.258796 -23.86957 5.093336 -0 16.99913 -0 -8.230054 -5.414223 -0.9992911 -4.903207 6.631414 -13.7377 -0 31.94223 -0 1.888934 -13.08076 15.39455 -1.64364 -1.725473 4.185583 3.867931 10.05301 -8.857496 0.2401857 20.22721 7.796357 4.033636 -26.74095 8.204008 6.55879 -16.97194 12.57164 87.72122 37.87451 -22.47467 -0 0 8.962163 -10.59272 10.84503 7.004475 5.60723 -22.43488 -1.902193 -89.20494 21.68105 17.70281 0 0 -22.61474 10.19157 12.11143 2.296659
4.395692 107.5543 39.85544 -1.572615 2.820825 3.123428 7.36298 -21.77223 5.098995 -0 16.58607 -0 -8.449895 -5.758427 -1.17078 -4.550257 4.980644 -12.973 -0 35.70785 -0 1.142966 -11.55899 14.90093 -1.488515 -1.571403 4.286616 3.851522 10.13081 -8.763495 0.2416861 20.3319 7.597692 3.917261 -26.43338 7.969367 6.603655 -16.82877 12.59005 87.47209 38.02873 -21.9809 -0 0 8.855158 -10.83257 11.15087 7.22143 5.298905 -22.23549 -1.866063 -89.19618 21.54168 17.86972 0 0 -21.88292 9.890011 11.77983 2.61997
4.638077 108.4759 44.74733 -1.599398 2.3828 3.032576 7.41781 -19.2251 5.159261 -0 16.32863 -0 -8.591923 -6.419018 -1.379561 -4.14182 3.005377 -12.25504 -0 38.98407 -0 0.4178536 -10.02115 14.57282 -1.346468 -1.410526 4.42975 3.799224 10.19891 -8.615189 0.2614712 20.45374 7.35356 3.763881 -26.0513 7.723421 6.627018 -16.81204 12.60185 87.0441 38.10749 -21.2238 -0 0 9.058204 -11.09315 11.46347 7.483597 4.958107 -21.92329 -1.824194 -89.34227 21.53122 18.28593 0 0 -20.91556 9.378142 11.48628 3.176356
4.871115 109.4922 49.71634 -1.590014 1.861316 2.859815 7.393118 -16.24838 5.233197 -0 16.10721 -0 -8.636582 -7.39523 -1.603332 -3.670974 0.6891084 -11.56528 -0 41.41588 -0 -0.2717454 -8.554229 14.42113 -1.223551 -1.240289 4.615569 3.702067 10.24767 -8.403084 0.2998374 20.5885 7.067892 3.573203 -25.59028 7.470618 6.596735 -16.95023 12.60106 86.41945 38.05427 -20.1631 -0 0 9.613732 -11.42444 11.77113 7.825629 4.609379 -21.50533 -1.780593 -89.63811 21.63168 18.9439 0 0 -19.74402 8.662897 11.22614 3.953107
5.104867 110.525 54.72438 -1.539782 1.265331 2.605284 7.259686 -12.8799 5.276969 -0 15.80929 -0 -8.568451 -8.669038 -1.818925 -3.136602 -1.947022 -10.88551 -0 42.65882 -0 -0.9105494 -7.249548 14.45192 -1.127587 -1.062569 4.839696 3.551119 10.26267 -8.118932 0.3585424 20.73614 6.745275 3.344787 -25.04467 7.218702 6.47495 -17.25985 12.57524 85.60381 37.80523 -18.78024 -0 0 10.53958 -11.87459 12.05449 8.276214 4.281431 -20.99248 -1.736891 -90.06701 21.81943 19.81062 0 0 -18.40826 7.767132 10.99572 4.918307
